G04 EAGLE Gerber RS-274X export*
G75*
%MOMM*%
%FSLAX34Y34*%
%LPD*%
%INSoldermask Bottom*%
%IPPOS*%
%AMOC8*
5,1,8,0,0,1.08239X$1,22.5*%
G01*
%ADD10C,2.451100*%
%ADD11C,4.191000*%
%ADD12C,1.905000*%
%ADD13P,2.034460X8X202.500000*%
%ADD14R,1.711200X1.711200*%
%ADD15C,1.711200*%


D10*
X593090Y558800D03*
X656590Y584200D03*
D11*
X631190Y533400D03*
D12*
X580390Y533400D03*
X681990Y533400D03*
D10*
X114300Y177800D03*
X177800Y203200D03*
D11*
X152400Y152400D03*
D12*
X101600Y152400D03*
X203200Y152400D03*
D10*
X304800Y558800D03*
X368300Y584200D03*
D11*
X342900Y533400D03*
D12*
X292100Y533400D03*
X393700Y533400D03*
D10*
X495300Y177800D03*
X558800Y203200D03*
D11*
X533400Y152400D03*
D12*
X482600Y152400D03*
X584200Y152400D03*
D10*
X685800Y368300D03*
X749300Y393700D03*
D11*
X723900Y342900D03*
D12*
X673100Y342900D03*
X774700Y342900D03*
D10*
X304800Y368300D03*
X368300Y393700D03*
D11*
X342900Y342900D03*
D12*
X292100Y342900D03*
X393700Y342900D03*
D10*
X304800Y177800D03*
X368300Y203200D03*
D11*
X342900Y152400D03*
D12*
X292100Y152400D03*
X393700Y152400D03*
D13*
X190500Y673100D03*
X88900Y673100D03*
X165100Y711200D03*
X63500Y711200D03*
D10*
X685800Y177800D03*
X749300Y203200D03*
D11*
X723900Y152400D03*
D12*
X673100Y152400D03*
X774700Y152400D03*
D14*
X469900Y698500D03*
D15*
X469900Y673100D03*
X469900Y647700D03*
X469900Y622300D03*
X469900Y596900D03*
X469900Y571500D03*
X469900Y546100D03*
X469900Y520700D03*
X469900Y495300D03*
X469900Y469900D03*
X927100Y469900D03*
X927100Y495300D03*
X927100Y520700D03*
X927100Y546100D03*
X927100Y571500D03*
X927100Y596900D03*
X927100Y622300D03*
X927100Y647700D03*
X927100Y673100D03*
D14*
X927100Y698500D03*
X495300Y698500D03*
D15*
X495300Y673100D03*
X495300Y647700D03*
X495300Y622300D03*
X495300Y596900D03*
X495300Y571500D03*
X495300Y546100D03*
X495300Y520700D03*
X495300Y495300D03*
X495300Y469900D03*
X901700Y469900D03*
X901700Y495300D03*
X901700Y520700D03*
X901700Y546100D03*
X901700Y571500D03*
X901700Y596900D03*
X901700Y622300D03*
X901700Y647700D03*
X901700Y673100D03*
D14*
X901700Y698500D03*
D15*
X114300Y635000D03*
X139700Y635000D03*
X165100Y635000D03*
X190500Y635000D03*
D10*
X495300Y368300D03*
X558800Y393700D03*
D11*
X533400Y342900D03*
D12*
X482600Y342900D03*
X584200Y342900D03*
M02*
