M48
;GenerationSoftware,Autodesk,EAGLE,9.6.2*%
;CreationDate,2020-12-21T17:20:14Z*%
FMAT,2
ICI,OFF
METRIC,TZ,000.000
T6C0.300
T5C0.813
T4C1.000
T3C1.499
T2C1.702
T1C3.988
%
G90
M71
T1
X15240Y15240
X53340Y34290
X72390Y15240
X34290Y15240
X34290Y34290
X72390Y34290
X53340Y15240
X63119Y53340
X34290Y53340
T2
X48260Y15240
X77470Y34290
X29210Y34290
X39370Y34290
X29210Y15240
X58039Y53340
X39370Y15240
X67310Y15240
X48260Y34290
X58420Y34290
X68199Y53340
X10160Y15240
X20320Y15240
X77470Y15240
X29210Y53340
X39370Y53340
X58420Y15240
X67310Y34290
T3
X11430Y17780
X17780Y20320
X30480Y55880
X36830Y58420
X55880Y20320
X68580Y36830
X74930Y39370
X30480Y36830
X36830Y20320
X36830Y39370
X55880Y39370
X68580Y17780
X49530Y17780
X49530Y36830
X30480Y17780
X74930Y20320
X59309Y55880
X65659Y58420
T4
X90170Y62230
X90170Y64770
X90170Y67310
X90170Y69850
X11430Y63500
X13970Y63500
X16510Y63500
X19050Y63500
X90170Y52070
X92710Y69850
X46990Y69850
X46990Y67310
X46990Y64770
X46990Y62230
X46990Y59690
X46990Y57150
X46990Y54610
X46990Y52070
X46990Y49530
X46990Y46990
X92710Y46990
X92710Y49530
X92710Y52070
X92710Y54610
X92710Y57150
X92710Y59690
X92710Y62230
X92710Y64770
X92710Y67310
X49530Y69850
X49530Y67310
X49530Y64770
X49530Y62230
X49530Y59690
X49530Y57150
X49530Y54610
X49530Y52070
X49530Y49530
X49530Y46990
X90170Y46990
X90170Y49530
X90170Y54610
X90170Y57150
X90170Y59690
T5
X19050Y67310
X8890Y67310
X16510Y71120
X6350Y71120
T6
X97790Y74930
X3810Y74930
X97790Y3810
X68580Y30480
X49530Y30480
X30480Y30480
X30480Y11430
X49530Y11430
X68580Y11430
X20320Y72390
X50800Y3810
X59690Y50800
X3810Y3810
X95250Y72390
X11430Y11430
X30480Y50800
M30