G04 EAGLE Gerber RS-274X export*
G75*
%MOMM*%
%FSLAX34Y34*%
%LPD*%
%INSilkscreen Top*%
%IPPOS*%
%AMOC8*
5,1,8,0,0,1.08239X$1,22.5*%
G01*
%ADD10C,0.101600*%


D10*
X585233Y489599D02*
X588479Y489599D01*
X588479Y489600D02*
X588592Y489598D01*
X588705Y489592D01*
X588818Y489582D01*
X588931Y489568D01*
X589043Y489551D01*
X589154Y489529D01*
X589264Y489504D01*
X589374Y489474D01*
X589482Y489441D01*
X589589Y489404D01*
X589695Y489364D01*
X589799Y489319D01*
X589902Y489271D01*
X590003Y489220D01*
X590102Y489165D01*
X590199Y489107D01*
X590294Y489045D01*
X590387Y488980D01*
X590477Y488912D01*
X590565Y488841D01*
X590651Y488766D01*
X590734Y488689D01*
X590814Y488609D01*
X590891Y488526D01*
X590966Y488440D01*
X591037Y488352D01*
X591105Y488262D01*
X591170Y488169D01*
X591232Y488074D01*
X591290Y487977D01*
X591345Y487878D01*
X591396Y487777D01*
X591444Y487674D01*
X591489Y487570D01*
X591529Y487464D01*
X591566Y487357D01*
X591599Y487249D01*
X591629Y487139D01*
X591654Y487029D01*
X591676Y486918D01*
X591693Y486806D01*
X591707Y486693D01*
X591717Y486580D01*
X591723Y486467D01*
X591725Y486354D01*
X591723Y486241D01*
X591717Y486128D01*
X591707Y486015D01*
X591693Y485902D01*
X591676Y485790D01*
X591654Y485679D01*
X591629Y485569D01*
X591599Y485459D01*
X591566Y485351D01*
X591529Y485244D01*
X591489Y485138D01*
X591444Y485034D01*
X591396Y484931D01*
X591345Y484830D01*
X591290Y484731D01*
X591232Y484634D01*
X591170Y484539D01*
X591105Y484446D01*
X591037Y484356D01*
X590966Y484268D01*
X590891Y484182D01*
X590814Y484099D01*
X590734Y484019D01*
X590651Y483942D01*
X590565Y483867D01*
X590477Y483796D01*
X590387Y483728D01*
X590294Y483663D01*
X590199Y483601D01*
X590102Y483543D01*
X590003Y483488D01*
X589902Y483437D01*
X589799Y483389D01*
X589695Y483344D01*
X589589Y483304D01*
X589482Y483267D01*
X589374Y483234D01*
X589264Y483204D01*
X589154Y483179D01*
X589043Y483157D01*
X588931Y483140D01*
X588818Y483126D01*
X588705Y483116D01*
X588592Y483110D01*
X588479Y483108D01*
X585233Y483108D01*
X585233Y494792D01*
X588479Y494792D01*
X588580Y494790D01*
X588680Y494784D01*
X588780Y494774D01*
X588880Y494761D01*
X588979Y494743D01*
X589078Y494722D01*
X589175Y494697D01*
X589272Y494668D01*
X589367Y494635D01*
X589461Y494599D01*
X589553Y494559D01*
X589644Y494516D01*
X589733Y494469D01*
X589820Y494419D01*
X589906Y494365D01*
X589989Y494308D01*
X590069Y494248D01*
X590148Y494185D01*
X590224Y494118D01*
X590297Y494049D01*
X590367Y493977D01*
X590435Y493903D01*
X590500Y493826D01*
X590561Y493746D01*
X590620Y493664D01*
X590675Y493580D01*
X590727Y493494D01*
X590776Y493406D01*
X590821Y493316D01*
X590863Y493224D01*
X590901Y493131D01*
X590935Y493036D01*
X590966Y492941D01*
X590993Y492844D01*
X591016Y492746D01*
X591036Y492647D01*
X591051Y492547D01*
X591063Y492447D01*
X591071Y492347D01*
X591075Y492246D01*
X591075Y492146D01*
X591071Y492045D01*
X591063Y491945D01*
X591051Y491845D01*
X591036Y491745D01*
X591016Y491646D01*
X590993Y491548D01*
X590966Y491451D01*
X590935Y491356D01*
X590901Y491261D01*
X590863Y491168D01*
X590821Y491076D01*
X590776Y490986D01*
X590727Y490898D01*
X590675Y490812D01*
X590620Y490728D01*
X590561Y490646D01*
X590500Y490566D01*
X590435Y490489D01*
X590367Y490415D01*
X590297Y490343D01*
X590224Y490274D01*
X590148Y490207D01*
X590069Y490144D01*
X589989Y490084D01*
X589906Y490027D01*
X589820Y489973D01*
X589733Y489923D01*
X589644Y489876D01*
X589553Y489833D01*
X589461Y489793D01*
X589367Y489757D01*
X589272Y489724D01*
X589175Y489695D01*
X589078Y489670D01*
X588979Y489649D01*
X588880Y489631D01*
X588780Y489618D01*
X588680Y489608D01*
X588580Y489602D01*
X588479Y489600D01*
X595464Y483108D02*
X599358Y494792D01*
X603253Y483108D01*
X602279Y486029D02*
X596437Y486029D01*
X610106Y483108D02*
X612702Y483108D01*
X610106Y483108D02*
X610007Y483110D01*
X609907Y483116D01*
X609808Y483125D01*
X609710Y483138D01*
X609612Y483155D01*
X609514Y483176D01*
X609418Y483201D01*
X609323Y483229D01*
X609229Y483261D01*
X609136Y483296D01*
X609044Y483335D01*
X608954Y483378D01*
X608866Y483423D01*
X608779Y483473D01*
X608695Y483525D01*
X608612Y483581D01*
X608532Y483639D01*
X608454Y483701D01*
X608379Y483766D01*
X608306Y483834D01*
X608236Y483904D01*
X608168Y483977D01*
X608103Y484052D01*
X608041Y484130D01*
X607983Y484210D01*
X607927Y484293D01*
X607875Y484377D01*
X607825Y484464D01*
X607780Y484552D01*
X607737Y484642D01*
X607698Y484734D01*
X607663Y484827D01*
X607631Y484921D01*
X607603Y485016D01*
X607578Y485112D01*
X607557Y485210D01*
X607540Y485308D01*
X607527Y485406D01*
X607518Y485505D01*
X607512Y485605D01*
X607510Y485704D01*
X607509Y485704D02*
X607509Y492196D01*
X607510Y492196D02*
X607512Y492295D01*
X607518Y492395D01*
X607527Y492494D01*
X607540Y492592D01*
X607557Y492690D01*
X607578Y492788D01*
X607603Y492884D01*
X607631Y492979D01*
X607663Y493073D01*
X607698Y493166D01*
X607737Y493258D01*
X607780Y493348D01*
X607825Y493436D01*
X607875Y493523D01*
X607927Y493607D01*
X607983Y493690D01*
X608041Y493770D01*
X608103Y493848D01*
X608168Y493923D01*
X608236Y493996D01*
X608306Y494066D01*
X608379Y494134D01*
X608454Y494199D01*
X608532Y494261D01*
X608612Y494319D01*
X608695Y494375D01*
X608779Y494427D01*
X608866Y494477D01*
X608954Y494522D01*
X609044Y494565D01*
X609136Y494604D01*
X609228Y494639D01*
X609323Y494671D01*
X609418Y494699D01*
X609514Y494724D01*
X609612Y494745D01*
X609710Y494762D01*
X609808Y494775D01*
X609907Y494784D01*
X610007Y494790D01*
X610106Y494792D01*
X612702Y494792D01*
X617618Y494792D02*
X617618Y483108D01*
X617618Y487652D02*
X624109Y494792D01*
X620214Y490248D02*
X624109Y483108D01*
X632011Y483108D02*
X632110Y483110D01*
X632210Y483116D01*
X632309Y483125D01*
X632407Y483138D01*
X632505Y483155D01*
X632603Y483176D01*
X632699Y483201D01*
X632794Y483229D01*
X632888Y483261D01*
X632981Y483296D01*
X633073Y483335D01*
X633163Y483378D01*
X633251Y483423D01*
X633338Y483473D01*
X633422Y483525D01*
X633505Y483581D01*
X633585Y483639D01*
X633663Y483701D01*
X633738Y483766D01*
X633811Y483834D01*
X633881Y483904D01*
X633949Y483977D01*
X634014Y484052D01*
X634076Y484130D01*
X634134Y484210D01*
X634190Y484293D01*
X634242Y484377D01*
X634292Y484464D01*
X634337Y484552D01*
X634380Y484642D01*
X634419Y484734D01*
X634454Y484827D01*
X634486Y484921D01*
X634514Y485016D01*
X634539Y485112D01*
X634560Y485210D01*
X634577Y485308D01*
X634590Y485406D01*
X634599Y485505D01*
X634605Y485605D01*
X634607Y485704D01*
X632011Y483108D02*
X631867Y483110D01*
X631722Y483116D01*
X631578Y483125D01*
X631435Y483138D01*
X631291Y483155D01*
X631148Y483176D01*
X631006Y483201D01*
X630865Y483229D01*
X630724Y483261D01*
X630584Y483297D01*
X630445Y483336D01*
X630307Y483379D01*
X630171Y483426D01*
X630035Y483476D01*
X629901Y483530D01*
X629769Y483587D01*
X629638Y483648D01*
X629509Y483712D01*
X629381Y483780D01*
X629255Y483850D01*
X629131Y483925D01*
X629010Y484002D01*
X628890Y484083D01*
X628772Y484166D01*
X628657Y484253D01*
X628544Y484343D01*
X628433Y484436D01*
X628325Y484531D01*
X628219Y484630D01*
X628116Y484731D01*
X628442Y492196D02*
X628444Y492295D01*
X628450Y492395D01*
X628459Y492494D01*
X628472Y492592D01*
X628489Y492690D01*
X628510Y492788D01*
X628535Y492884D01*
X628563Y492979D01*
X628595Y493073D01*
X628630Y493166D01*
X628669Y493258D01*
X628712Y493348D01*
X628757Y493436D01*
X628807Y493523D01*
X628859Y493607D01*
X628915Y493690D01*
X628973Y493770D01*
X629035Y493848D01*
X629100Y493923D01*
X629168Y493996D01*
X629238Y494066D01*
X629311Y494134D01*
X629386Y494199D01*
X629464Y494261D01*
X629544Y494319D01*
X629627Y494375D01*
X629711Y494427D01*
X629798Y494477D01*
X629886Y494522D01*
X629976Y494565D01*
X630068Y494604D01*
X630161Y494639D01*
X630255Y494671D01*
X630350Y494699D01*
X630447Y494724D01*
X630544Y494745D01*
X630642Y494762D01*
X630740Y494775D01*
X630839Y494784D01*
X630939Y494790D01*
X631038Y494792D01*
X631174Y494790D01*
X631310Y494784D01*
X631446Y494775D01*
X631582Y494762D01*
X631717Y494744D01*
X631851Y494724D01*
X631985Y494699D01*
X632119Y494671D01*
X632251Y494638D01*
X632382Y494603D01*
X632513Y494563D01*
X632642Y494520D01*
X632770Y494474D01*
X632896Y494423D01*
X633022Y494370D01*
X633145Y494312D01*
X633267Y494252D01*
X633387Y494188D01*
X633506Y494120D01*
X633622Y494050D01*
X633736Y493976D01*
X633849Y493899D01*
X633959Y493818D01*
X629739Y489924D02*
X629653Y489977D01*
X629569Y490034D01*
X629487Y490093D01*
X629407Y490156D01*
X629330Y490222D01*
X629255Y490290D01*
X629183Y490362D01*
X629114Y490436D01*
X629048Y490513D01*
X628985Y490592D01*
X628925Y490674D01*
X628868Y490758D01*
X628814Y490844D01*
X628764Y490932D01*
X628717Y491022D01*
X628673Y491113D01*
X628634Y491207D01*
X628597Y491301D01*
X628565Y491397D01*
X628536Y491495D01*
X628511Y491593D01*
X628490Y491692D01*
X628472Y491792D01*
X628459Y491892D01*
X628449Y491993D01*
X628443Y492095D01*
X628441Y492196D01*
X633310Y487976D02*
X633396Y487923D01*
X633480Y487866D01*
X633562Y487807D01*
X633642Y487744D01*
X633719Y487678D01*
X633794Y487610D01*
X633866Y487538D01*
X633935Y487464D01*
X634001Y487387D01*
X634064Y487308D01*
X634124Y487226D01*
X634181Y487142D01*
X634235Y487056D01*
X634285Y486968D01*
X634332Y486878D01*
X634376Y486787D01*
X634415Y486693D01*
X634452Y486599D01*
X634484Y486503D01*
X634513Y486405D01*
X634538Y486307D01*
X634559Y486208D01*
X634577Y486108D01*
X634590Y486008D01*
X634600Y485907D01*
X634606Y485805D01*
X634608Y485704D01*
X633309Y487976D02*
X629739Y489924D01*
X639716Y494792D02*
X639716Y483108D01*
X639716Y494792D02*
X642961Y494792D01*
X643074Y494790D01*
X643187Y494784D01*
X643300Y494774D01*
X643413Y494760D01*
X643525Y494743D01*
X643636Y494721D01*
X643746Y494696D01*
X643856Y494666D01*
X643964Y494633D01*
X644071Y494596D01*
X644177Y494556D01*
X644281Y494511D01*
X644384Y494463D01*
X644485Y494412D01*
X644584Y494357D01*
X644681Y494299D01*
X644776Y494237D01*
X644869Y494172D01*
X644959Y494104D01*
X645047Y494033D01*
X645133Y493958D01*
X645216Y493881D01*
X645296Y493801D01*
X645373Y493718D01*
X645448Y493632D01*
X645519Y493544D01*
X645587Y493454D01*
X645652Y493361D01*
X645714Y493266D01*
X645772Y493169D01*
X645827Y493070D01*
X645878Y492969D01*
X645926Y492866D01*
X645971Y492762D01*
X646011Y492656D01*
X646048Y492549D01*
X646081Y492441D01*
X646111Y492331D01*
X646136Y492221D01*
X646158Y492110D01*
X646175Y491998D01*
X646189Y491885D01*
X646199Y491772D01*
X646205Y491659D01*
X646207Y491546D01*
X646205Y491433D01*
X646199Y491320D01*
X646189Y491207D01*
X646175Y491094D01*
X646158Y490982D01*
X646136Y490871D01*
X646111Y490761D01*
X646081Y490651D01*
X646048Y490543D01*
X646011Y490436D01*
X645971Y490330D01*
X645926Y490226D01*
X645878Y490123D01*
X645827Y490022D01*
X645772Y489923D01*
X645714Y489826D01*
X645652Y489731D01*
X645587Y489638D01*
X645519Y489548D01*
X645448Y489460D01*
X645373Y489374D01*
X645296Y489291D01*
X645216Y489211D01*
X645133Y489134D01*
X645047Y489059D01*
X644959Y488988D01*
X644869Y488920D01*
X644776Y488855D01*
X644681Y488793D01*
X644584Y488735D01*
X644485Y488680D01*
X644384Y488629D01*
X644281Y488581D01*
X644177Y488536D01*
X644071Y488496D01*
X643964Y488459D01*
X643856Y488426D01*
X643746Y488396D01*
X643636Y488371D01*
X643525Y488349D01*
X643413Y488332D01*
X643300Y488318D01*
X643187Y488308D01*
X643074Y488302D01*
X642961Y488300D01*
X642961Y488301D02*
X639716Y488301D01*
X649946Y483108D02*
X653841Y494792D01*
X657736Y483108D01*
X656762Y486029D02*
X650920Y486029D01*
X664589Y483108D02*
X667185Y483108D01*
X664589Y483108D02*
X664490Y483110D01*
X664390Y483116D01*
X664291Y483125D01*
X664193Y483138D01*
X664095Y483155D01*
X663997Y483176D01*
X663901Y483201D01*
X663806Y483229D01*
X663712Y483261D01*
X663619Y483296D01*
X663527Y483335D01*
X663437Y483378D01*
X663349Y483423D01*
X663262Y483473D01*
X663178Y483525D01*
X663095Y483581D01*
X663015Y483639D01*
X662937Y483701D01*
X662862Y483766D01*
X662789Y483834D01*
X662719Y483904D01*
X662651Y483977D01*
X662586Y484052D01*
X662524Y484130D01*
X662466Y484210D01*
X662410Y484293D01*
X662358Y484377D01*
X662308Y484464D01*
X662263Y484552D01*
X662220Y484642D01*
X662181Y484734D01*
X662146Y484827D01*
X662114Y484921D01*
X662086Y485016D01*
X662061Y485112D01*
X662040Y485210D01*
X662023Y485308D01*
X662010Y485406D01*
X662001Y485505D01*
X661995Y485605D01*
X661993Y485704D01*
X661992Y485704D02*
X661992Y492196D01*
X661993Y492196D02*
X661995Y492295D01*
X662001Y492395D01*
X662010Y492494D01*
X662023Y492592D01*
X662040Y492690D01*
X662061Y492788D01*
X662086Y492884D01*
X662114Y492979D01*
X662146Y493073D01*
X662181Y493166D01*
X662220Y493258D01*
X662263Y493348D01*
X662308Y493436D01*
X662358Y493523D01*
X662410Y493607D01*
X662466Y493690D01*
X662524Y493770D01*
X662586Y493848D01*
X662651Y493923D01*
X662719Y493996D01*
X662789Y494066D01*
X662862Y494134D01*
X662937Y494199D01*
X663015Y494261D01*
X663095Y494319D01*
X663178Y494375D01*
X663262Y494427D01*
X663349Y494477D01*
X663437Y494522D01*
X663527Y494565D01*
X663619Y494604D01*
X663711Y494639D01*
X663806Y494671D01*
X663901Y494699D01*
X663997Y494724D01*
X664095Y494745D01*
X664193Y494762D01*
X664291Y494775D01*
X664390Y494784D01*
X664490Y494790D01*
X664589Y494792D01*
X667185Y494792D01*
X671954Y483108D02*
X677147Y483108D01*
X671954Y483108D02*
X671954Y494792D01*
X677147Y494792D01*
X675849Y489599D02*
X671954Y489599D01*
X139157Y102108D02*
X136561Y102108D01*
X136462Y102110D01*
X136362Y102116D01*
X136263Y102125D01*
X136165Y102138D01*
X136067Y102155D01*
X135969Y102176D01*
X135873Y102201D01*
X135778Y102229D01*
X135684Y102261D01*
X135591Y102296D01*
X135499Y102335D01*
X135409Y102378D01*
X135321Y102423D01*
X135234Y102473D01*
X135150Y102525D01*
X135067Y102581D01*
X134987Y102639D01*
X134909Y102701D01*
X134834Y102766D01*
X134761Y102834D01*
X134691Y102904D01*
X134623Y102977D01*
X134558Y103052D01*
X134496Y103130D01*
X134438Y103210D01*
X134382Y103293D01*
X134330Y103377D01*
X134280Y103464D01*
X134235Y103552D01*
X134192Y103642D01*
X134153Y103734D01*
X134118Y103827D01*
X134086Y103921D01*
X134058Y104016D01*
X134033Y104112D01*
X134012Y104210D01*
X133995Y104308D01*
X133982Y104406D01*
X133973Y104505D01*
X133967Y104605D01*
X133965Y104704D01*
X133964Y104704D02*
X133964Y111196D01*
X133965Y111196D02*
X133967Y111295D01*
X133973Y111395D01*
X133982Y111494D01*
X133995Y111592D01*
X134012Y111690D01*
X134033Y111788D01*
X134058Y111884D01*
X134086Y111979D01*
X134118Y112073D01*
X134153Y112166D01*
X134192Y112258D01*
X134235Y112348D01*
X134280Y112436D01*
X134330Y112523D01*
X134382Y112607D01*
X134438Y112690D01*
X134496Y112770D01*
X134558Y112848D01*
X134623Y112923D01*
X134691Y112996D01*
X134761Y113066D01*
X134834Y113134D01*
X134909Y113199D01*
X134987Y113261D01*
X135067Y113319D01*
X135150Y113375D01*
X135234Y113427D01*
X135321Y113477D01*
X135409Y113522D01*
X135499Y113565D01*
X135591Y113604D01*
X135683Y113639D01*
X135778Y113671D01*
X135873Y113699D01*
X135969Y113724D01*
X136067Y113745D01*
X136165Y113762D01*
X136263Y113775D01*
X136362Y113784D01*
X136462Y113790D01*
X136561Y113792D01*
X139157Y113792D01*
X146006Y113792D02*
X146006Y102108D01*
X142760Y113792D02*
X149252Y113792D01*
X153883Y113792D02*
X153883Y102108D01*
X153883Y113792D02*
X157129Y113792D01*
X157242Y113790D01*
X157355Y113784D01*
X157468Y113774D01*
X157581Y113760D01*
X157693Y113743D01*
X157804Y113721D01*
X157914Y113696D01*
X158024Y113666D01*
X158132Y113633D01*
X158239Y113596D01*
X158345Y113556D01*
X158449Y113511D01*
X158552Y113463D01*
X158653Y113412D01*
X158752Y113357D01*
X158849Y113299D01*
X158944Y113237D01*
X159037Y113172D01*
X159127Y113104D01*
X159215Y113033D01*
X159301Y112958D01*
X159384Y112881D01*
X159464Y112801D01*
X159541Y112718D01*
X159616Y112632D01*
X159687Y112544D01*
X159755Y112454D01*
X159820Y112361D01*
X159882Y112266D01*
X159940Y112169D01*
X159995Y112070D01*
X160046Y111969D01*
X160094Y111866D01*
X160139Y111762D01*
X160179Y111656D01*
X160216Y111549D01*
X160249Y111441D01*
X160279Y111331D01*
X160304Y111221D01*
X160326Y111110D01*
X160343Y110998D01*
X160357Y110885D01*
X160367Y110772D01*
X160373Y110659D01*
X160375Y110546D01*
X160373Y110433D01*
X160367Y110320D01*
X160357Y110207D01*
X160343Y110094D01*
X160326Y109982D01*
X160304Y109871D01*
X160279Y109761D01*
X160249Y109651D01*
X160216Y109543D01*
X160179Y109436D01*
X160139Y109330D01*
X160094Y109226D01*
X160046Y109123D01*
X159995Y109022D01*
X159940Y108923D01*
X159882Y108826D01*
X159820Y108731D01*
X159755Y108638D01*
X159687Y108548D01*
X159616Y108460D01*
X159541Y108374D01*
X159464Y108291D01*
X159384Y108211D01*
X159301Y108134D01*
X159215Y108059D01*
X159127Y107988D01*
X159037Y107920D01*
X158944Y107855D01*
X158849Y107793D01*
X158752Y107735D01*
X158653Y107680D01*
X158552Y107629D01*
X158449Y107581D01*
X158345Y107536D01*
X158239Y107496D01*
X158132Y107459D01*
X158024Y107426D01*
X157914Y107396D01*
X157804Y107371D01*
X157693Y107349D01*
X157581Y107332D01*
X157468Y107318D01*
X157355Y107308D01*
X157242Y107302D01*
X157129Y107300D01*
X157129Y107301D02*
X153883Y107301D01*
X157778Y107301D02*
X160374Y102108D01*
X165643Y102108D02*
X165643Y113792D01*
X165643Y102108D02*
X170836Y102108D01*
X329243Y483108D02*
X329243Y494792D01*
X332489Y494792D01*
X332602Y494790D01*
X332715Y494784D01*
X332828Y494774D01*
X332941Y494760D01*
X333053Y494743D01*
X333164Y494721D01*
X333274Y494696D01*
X333384Y494666D01*
X333492Y494633D01*
X333599Y494596D01*
X333705Y494556D01*
X333809Y494511D01*
X333912Y494463D01*
X334013Y494412D01*
X334112Y494357D01*
X334209Y494299D01*
X334304Y494237D01*
X334397Y494172D01*
X334487Y494104D01*
X334575Y494033D01*
X334661Y493958D01*
X334744Y493881D01*
X334824Y493801D01*
X334901Y493718D01*
X334976Y493632D01*
X335047Y493544D01*
X335115Y493454D01*
X335180Y493361D01*
X335242Y493266D01*
X335300Y493169D01*
X335355Y493070D01*
X335406Y492969D01*
X335454Y492866D01*
X335499Y492762D01*
X335539Y492656D01*
X335576Y492549D01*
X335609Y492441D01*
X335639Y492331D01*
X335664Y492221D01*
X335686Y492110D01*
X335703Y491998D01*
X335717Y491885D01*
X335727Y491772D01*
X335733Y491659D01*
X335735Y491546D01*
X335734Y491546D02*
X335734Y486354D01*
X335735Y486354D02*
X335733Y486241D01*
X335727Y486128D01*
X335717Y486015D01*
X335703Y485902D01*
X335686Y485790D01*
X335664Y485679D01*
X335639Y485569D01*
X335609Y485459D01*
X335576Y485351D01*
X335539Y485244D01*
X335499Y485138D01*
X335454Y485034D01*
X335406Y484931D01*
X335355Y484830D01*
X335300Y484731D01*
X335242Y484634D01*
X335180Y484539D01*
X335115Y484446D01*
X335047Y484356D01*
X334976Y484268D01*
X334901Y484182D01*
X334824Y484099D01*
X334744Y484019D01*
X334661Y483942D01*
X334575Y483867D01*
X334487Y483796D01*
X334397Y483728D01*
X334304Y483663D01*
X334209Y483601D01*
X334112Y483543D01*
X334013Y483488D01*
X333912Y483437D01*
X333809Y483389D01*
X333705Y483344D01*
X333599Y483304D01*
X333492Y483267D01*
X333384Y483234D01*
X333274Y483204D01*
X333164Y483179D01*
X333053Y483157D01*
X332941Y483140D01*
X332828Y483126D01*
X332715Y483116D01*
X332602Y483110D01*
X332489Y483108D01*
X329243Y483108D01*
X341458Y483108D02*
X346651Y483108D01*
X341458Y483108D02*
X341458Y494792D01*
X346651Y494792D01*
X345353Y489599D02*
X341458Y489599D01*
X351364Y494792D02*
X351364Y483108D01*
X356557Y483108D01*
X511105Y113792D02*
X511105Y102108D01*
X511105Y113792D02*
X514350Y113792D01*
X514463Y113790D01*
X514576Y113784D01*
X514689Y113774D01*
X514802Y113760D01*
X514914Y113743D01*
X515025Y113721D01*
X515135Y113696D01*
X515245Y113666D01*
X515353Y113633D01*
X515460Y113596D01*
X515566Y113556D01*
X515670Y113511D01*
X515773Y113463D01*
X515874Y113412D01*
X515973Y113357D01*
X516070Y113299D01*
X516165Y113237D01*
X516258Y113172D01*
X516348Y113104D01*
X516436Y113033D01*
X516522Y112958D01*
X516605Y112881D01*
X516685Y112801D01*
X516762Y112718D01*
X516837Y112632D01*
X516908Y112544D01*
X516976Y112454D01*
X517041Y112361D01*
X517103Y112266D01*
X517161Y112169D01*
X517216Y112070D01*
X517267Y111969D01*
X517315Y111866D01*
X517360Y111762D01*
X517400Y111656D01*
X517437Y111549D01*
X517470Y111441D01*
X517500Y111331D01*
X517525Y111221D01*
X517547Y111110D01*
X517564Y110998D01*
X517578Y110885D01*
X517588Y110772D01*
X517594Y110659D01*
X517596Y110546D01*
X517596Y105354D01*
X517594Y105241D01*
X517588Y105128D01*
X517578Y105015D01*
X517564Y104902D01*
X517547Y104790D01*
X517525Y104679D01*
X517500Y104569D01*
X517470Y104459D01*
X517437Y104351D01*
X517400Y104244D01*
X517360Y104138D01*
X517315Y104034D01*
X517267Y103931D01*
X517216Y103830D01*
X517161Y103731D01*
X517103Y103634D01*
X517041Y103539D01*
X516976Y103446D01*
X516908Y103356D01*
X516837Y103268D01*
X516762Y103182D01*
X516685Y103099D01*
X516605Y103019D01*
X516522Y102942D01*
X516436Y102867D01*
X516348Y102796D01*
X516258Y102728D01*
X516165Y102663D01*
X516070Y102601D01*
X515973Y102543D01*
X515874Y102488D01*
X515773Y102437D01*
X515670Y102389D01*
X515566Y102344D01*
X515460Y102304D01*
X515353Y102267D01*
X515245Y102234D01*
X515135Y102204D01*
X515025Y102179D01*
X514914Y102157D01*
X514802Y102140D01*
X514689Y102126D01*
X514576Y102116D01*
X514463Y102110D01*
X514350Y102108D01*
X511105Y102108D01*
X522915Y105354D02*
X522915Y110546D01*
X522917Y110659D01*
X522923Y110772D01*
X522933Y110885D01*
X522947Y110998D01*
X522964Y111110D01*
X522986Y111221D01*
X523011Y111331D01*
X523041Y111441D01*
X523074Y111549D01*
X523111Y111656D01*
X523151Y111762D01*
X523196Y111866D01*
X523244Y111969D01*
X523295Y112070D01*
X523350Y112169D01*
X523408Y112266D01*
X523470Y112361D01*
X523535Y112454D01*
X523603Y112544D01*
X523674Y112632D01*
X523749Y112718D01*
X523826Y112801D01*
X523906Y112881D01*
X523989Y112958D01*
X524075Y113033D01*
X524163Y113104D01*
X524253Y113172D01*
X524346Y113237D01*
X524441Y113299D01*
X524538Y113357D01*
X524637Y113412D01*
X524738Y113463D01*
X524841Y113511D01*
X524945Y113556D01*
X525051Y113596D01*
X525158Y113633D01*
X525266Y113666D01*
X525376Y113696D01*
X525486Y113721D01*
X525597Y113743D01*
X525709Y113760D01*
X525822Y113774D01*
X525935Y113784D01*
X526048Y113790D01*
X526161Y113792D01*
X526274Y113790D01*
X526387Y113784D01*
X526500Y113774D01*
X526613Y113760D01*
X526725Y113743D01*
X526836Y113721D01*
X526946Y113696D01*
X527056Y113666D01*
X527164Y113633D01*
X527271Y113596D01*
X527377Y113556D01*
X527481Y113511D01*
X527584Y113463D01*
X527685Y113412D01*
X527784Y113357D01*
X527881Y113299D01*
X527976Y113237D01*
X528069Y113172D01*
X528159Y113104D01*
X528247Y113033D01*
X528333Y112958D01*
X528416Y112881D01*
X528496Y112801D01*
X528573Y112718D01*
X528648Y112632D01*
X528719Y112544D01*
X528787Y112454D01*
X528852Y112361D01*
X528914Y112266D01*
X528972Y112169D01*
X529027Y112070D01*
X529078Y111969D01*
X529126Y111866D01*
X529171Y111762D01*
X529211Y111656D01*
X529248Y111549D01*
X529281Y111441D01*
X529311Y111331D01*
X529336Y111221D01*
X529358Y111110D01*
X529375Y110998D01*
X529389Y110885D01*
X529399Y110772D01*
X529405Y110659D01*
X529407Y110546D01*
X529407Y105354D01*
X529405Y105241D01*
X529399Y105128D01*
X529389Y105015D01*
X529375Y104902D01*
X529358Y104790D01*
X529336Y104679D01*
X529311Y104569D01*
X529281Y104459D01*
X529248Y104351D01*
X529211Y104244D01*
X529171Y104138D01*
X529126Y104034D01*
X529078Y103931D01*
X529027Y103830D01*
X528972Y103731D01*
X528914Y103634D01*
X528852Y103539D01*
X528787Y103446D01*
X528719Y103356D01*
X528648Y103268D01*
X528573Y103182D01*
X528496Y103099D01*
X528416Y103019D01*
X528333Y102942D01*
X528247Y102867D01*
X528159Y102796D01*
X528069Y102728D01*
X527976Y102663D01*
X527881Y102601D01*
X527784Y102543D01*
X527685Y102488D01*
X527584Y102437D01*
X527481Y102389D01*
X527377Y102344D01*
X527271Y102304D01*
X527164Y102267D01*
X527056Y102234D01*
X526946Y102204D01*
X526836Y102179D01*
X526725Y102157D01*
X526613Y102140D01*
X526500Y102126D01*
X526387Y102116D01*
X526274Y102110D01*
X526161Y102108D01*
X526048Y102110D01*
X525935Y102116D01*
X525822Y102126D01*
X525709Y102140D01*
X525597Y102157D01*
X525486Y102179D01*
X525376Y102204D01*
X525266Y102234D01*
X525158Y102267D01*
X525051Y102304D01*
X524945Y102344D01*
X524841Y102389D01*
X524738Y102437D01*
X524637Y102488D01*
X524538Y102543D01*
X524441Y102601D01*
X524346Y102663D01*
X524253Y102728D01*
X524163Y102796D01*
X524075Y102867D01*
X523989Y102942D01*
X523906Y103019D01*
X523826Y103099D01*
X523749Y103182D01*
X523674Y103268D01*
X523603Y103356D01*
X523535Y103446D01*
X523470Y103539D01*
X523408Y103634D01*
X523350Y103731D01*
X523295Y103830D01*
X523244Y103931D01*
X523196Y104034D01*
X523151Y104138D01*
X523111Y104244D01*
X523074Y104351D01*
X523041Y104459D01*
X523011Y104569D01*
X522986Y104679D01*
X522964Y104790D01*
X522947Y104902D01*
X522933Y105015D01*
X522923Y105128D01*
X522917Y105241D01*
X522915Y105354D01*
X533922Y113792D02*
X536519Y102108D01*
X539115Y109897D01*
X541711Y102108D01*
X544308Y113792D01*
X549204Y113792D02*
X549204Y102108D01*
X555696Y102108D02*
X549204Y113792D01*
X555696Y113792D02*
X555696Y102108D01*
X709617Y292608D02*
X714810Y292608D01*
X709617Y292608D02*
X709617Y304292D01*
X714810Y304292D01*
X713511Y299099D02*
X709617Y299099D01*
X719500Y304292D02*
X719500Y292608D01*
X725991Y292608D02*
X719500Y304292D01*
X725991Y304292D02*
X725991Y292608D01*
X731692Y292608D02*
X731692Y304292D01*
X734938Y304292D01*
X735051Y304290D01*
X735164Y304284D01*
X735277Y304274D01*
X735390Y304260D01*
X735502Y304243D01*
X735613Y304221D01*
X735723Y304196D01*
X735833Y304166D01*
X735941Y304133D01*
X736048Y304096D01*
X736154Y304056D01*
X736258Y304011D01*
X736361Y303963D01*
X736462Y303912D01*
X736561Y303857D01*
X736658Y303799D01*
X736753Y303737D01*
X736846Y303672D01*
X736936Y303604D01*
X737024Y303533D01*
X737110Y303458D01*
X737193Y303381D01*
X737273Y303301D01*
X737350Y303218D01*
X737425Y303132D01*
X737496Y303044D01*
X737564Y302954D01*
X737629Y302861D01*
X737691Y302766D01*
X737749Y302669D01*
X737804Y302570D01*
X737855Y302469D01*
X737903Y302366D01*
X737948Y302262D01*
X737988Y302156D01*
X738025Y302049D01*
X738058Y301941D01*
X738088Y301831D01*
X738113Y301721D01*
X738135Y301610D01*
X738152Y301498D01*
X738166Y301385D01*
X738176Y301272D01*
X738182Y301159D01*
X738184Y301046D01*
X738183Y301046D02*
X738183Y295854D01*
X738184Y295854D02*
X738182Y295741D01*
X738176Y295628D01*
X738166Y295515D01*
X738152Y295402D01*
X738135Y295290D01*
X738113Y295179D01*
X738088Y295069D01*
X738058Y294959D01*
X738025Y294851D01*
X737988Y294744D01*
X737948Y294638D01*
X737903Y294534D01*
X737855Y294431D01*
X737804Y294330D01*
X737749Y294231D01*
X737691Y294134D01*
X737629Y294039D01*
X737564Y293946D01*
X737496Y293856D01*
X737425Y293768D01*
X737350Y293682D01*
X737273Y293599D01*
X737193Y293519D01*
X737110Y293442D01*
X737024Y293367D01*
X736936Y293296D01*
X736846Y293228D01*
X736753Y293163D01*
X736658Y293101D01*
X736561Y293043D01*
X736462Y292988D01*
X736361Y292937D01*
X736258Y292889D01*
X736154Y292844D01*
X736048Y292804D01*
X735941Y292767D01*
X735833Y292734D01*
X735723Y292704D01*
X735613Y292679D01*
X735502Y292657D01*
X735390Y292640D01*
X735277Y292626D01*
X735164Y292616D01*
X735051Y292610D01*
X734938Y292608D01*
X731692Y292608D01*
X321623Y292608D02*
X321623Y304292D01*
X321623Y299099D02*
X328114Y299099D01*
X328114Y304292D02*
X328114Y292608D01*
X333434Y295854D02*
X333434Y301046D01*
X333436Y301159D01*
X333442Y301272D01*
X333452Y301385D01*
X333466Y301498D01*
X333483Y301610D01*
X333505Y301721D01*
X333530Y301831D01*
X333560Y301941D01*
X333593Y302049D01*
X333630Y302156D01*
X333670Y302262D01*
X333715Y302366D01*
X333763Y302469D01*
X333814Y302570D01*
X333869Y302669D01*
X333927Y302766D01*
X333989Y302861D01*
X334054Y302954D01*
X334122Y303044D01*
X334193Y303132D01*
X334268Y303218D01*
X334345Y303301D01*
X334425Y303381D01*
X334508Y303458D01*
X334594Y303533D01*
X334682Y303604D01*
X334772Y303672D01*
X334865Y303737D01*
X334960Y303799D01*
X335057Y303857D01*
X335156Y303912D01*
X335257Y303963D01*
X335360Y304011D01*
X335464Y304056D01*
X335570Y304096D01*
X335677Y304133D01*
X335785Y304166D01*
X335895Y304196D01*
X336005Y304221D01*
X336116Y304243D01*
X336228Y304260D01*
X336341Y304274D01*
X336454Y304284D01*
X336567Y304290D01*
X336680Y304292D01*
X336793Y304290D01*
X336906Y304284D01*
X337019Y304274D01*
X337132Y304260D01*
X337244Y304243D01*
X337355Y304221D01*
X337465Y304196D01*
X337575Y304166D01*
X337683Y304133D01*
X337790Y304096D01*
X337896Y304056D01*
X338000Y304011D01*
X338103Y303963D01*
X338204Y303912D01*
X338303Y303857D01*
X338400Y303799D01*
X338495Y303737D01*
X338588Y303672D01*
X338678Y303604D01*
X338766Y303533D01*
X338852Y303458D01*
X338935Y303381D01*
X339015Y303301D01*
X339092Y303218D01*
X339167Y303132D01*
X339238Y303044D01*
X339306Y302954D01*
X339371Y302861D01*
X339433Y302766D01*
X339491Y302669D01*
X339546Y302570D01*
X339597Y302469D01*
X339645Y302366D01*
X339690Y302262D01*
X339730Y302156D01*
X339767Y302049D01*
X339800Y301941D01*
X339830Y301831D01*
X339855Y301721D01*
X339877Y301610D01*
X339894Y301498D01*
X339908Y301385D01*
X339918Y301272D01*
X339924Y301159D01*
X339926Y301046D01*
X339925Y301046D02*
X339925Y295854D01*
X339926Y295854D02*
X339924Y295741D01*
X339918Y295628D01*
X339908Y295515D01*
X339894Y295402D01*
X339877Y295290D01*
X339855Y295179D01*
X339830Y295069D01*
X339800Y294959D01*
X339767Y294851D01*
X339730Y294744D01*
X339690Y294638D01*
X339645Y294534D01*
X339597Y294431D01*
X339546Y294330D01*
X339491Y294231D01*
X339433Y294134D01*
X339371Y294039D01*
X339306Y293946D01*
X339238Y293856D01*
X339167Y293768D01*
X339092Y293682D01*
X339015Y293599D01*
X338935Y293519D01*
X338852Y293442D01*
X338766Y293367D01*
X338678Y293296D01*
X338588Y293228D01*
X338495Y293163D01*
X338400Y293101D01*
X338303Y293043D01*
X338204Y292988D01*
X338103Y292937D01*
X338000Y292889D01*
X337896Y292844D01*
X337790Y292804D01*
X337683Y292767D01*
X337575Y292734D01*
X337465Y292704D01*
X337355Y292679D01*
X337244Y292657D01*
X337132Y292640D01*
X337019Y292626D01*
X336906Y292616D01*
X336793Y292610D01*
X336680Y292608D01*
X336567Y292610D01*
X336454Y292616D01*
X336341Y292626D01*
X336228Y292640D01*
X336116Y292657D01*
X336005Y292679D01*
X335895Y292704D01*
X335785Y292734D01*
X335677Y292767D01*
X335570Y292804D01*
X335464Y292844D01*
X335360Y292889D01*
X335257Y292937D01*
X335156Y292988D01*
X335057Y293043D01*
X334960Y293101D01*
X334865Y293163D01*
X334772Y293228D01*
X334682Y293296D01*
X334594Y293367D01*
X334508Y293442D01*
X334425Y293519D01*
X334345Y293599D01*
X334268Y293682D01*
X334193Y293768D01*
X334122Y293856D01*
X334054Y293946D01*
X333989Y294039D01*
X333927Y294134D01*
X333869Y294231D01*
X333814Y294330D01*
X333763Y294431D01*
X333715Y294534D01*
X333670Y294638D01*
X333630Y294744D01*
X333593Y294851D01*
X333560Y294959D01*
X333530Y295069D01*
X333505Y295179D01*
X333483Y295290D01*
X333466Y295402D01*
X333452Y295515D01*
X333442Y295628D01*
X333436Y295741D01*
X333434Y295854D01*
X345358Y292608D02*
X345358Y304292D01*
X349253Y297801D01*
X353147Y304292D01*
X353147Y292608D01*
X358984Y292608D02*
X364177Y292608D01*
X358984Y292608D02*
X358984Y304292D01*
X364177Y304292D01*
X362879Y299099D02*
X358984Y299099D01*
X325378Y113792D02*
X325378Y102108D01*
X330571Y102108D01*
X335284Y102108D02*
X340477Y102108D01*
X335284Y102108D02*
X335284Y113792D01*
X340477Y113792D01*
X339179Y108599D02*
X335284Y108599D01*
X345190Y113792D02*
X345190Y102108D01*
X345190Y113792D02*
X350383Y113792D01*
X350383Y108599D02*
X345190Y108599D01*
X357176Y113792D02*
X357176Y102108D01*
X353931Y113792D02*
X360422Y113792D01*
X699736Y113792D02*
X699736Y102108D01*
X699736Y113792D02*
X702982Y113792D01*
X703095Y113790D01*
X703208Y113784D01*
X703321Y113774D01*
X703434Y113760D01*
X703546Y113743D01*
X703657Y113721D01*
X703767Y113696D01*
X703877Y113666D01*
X703985Y113633D01*
X704092Y113596D01*
X704198Y113556D01*
X704302Y113511D01*
X704405Y113463D01*
X704506Y113412D01*
X704605Y113357D01*
X704702Y113299D01*
X704797Y113237D01*
X704890Y113172D01*
X704980Y113104D01*
X705068Y113033D01*
X705154Y112958D01*
X705237Y112881D01*
X705317Y112801D01*
X705394Y112718D01*
X705469Y112632D01*
X705540Y112544D01*
X705608Y112454D01*
X705673Y112361D01*
X705735Y112266D01*
X705793Y112169D01*
X705848Y112070D01*
X705899Y111969D01*
X705947Y111866D01*
X705992Y111762D01*
X706032Y111656D01*
X706069Y111549D01*
X706102Y111441D01*
X706132Y111331D01*
X706157Y111221D01*
X706179Y111110D01*
X706196Y110998D01*
X706210Y110885D01*
X706220Y110772D01*
X706226Y110659D01*
X706228Y110546D01*
X706226Y110433D01*
X706220Y110320D01*
X706210Y110207D01*
X706196Y110094D01*
X706179Y109982D01*
X706157Y109871D01*
X706132Y109761D01*
X706102Y109651D01*
X706069Y109543D01*
X706032Y109436D01*
X705992Y109330D01*
X705947Y109226D01*
X705899Y109123D01*
X705848Y109022D01*
X705793Y108923D01*
X705735Y108826D01*
X705673Y108731D01*
X705608Y108638D01*
X705540Y108548D01*
X705469Y108460D01*
X705394Y108374D01*
X705317Y108291D01*
X705237Y108211D01*
X705154Y108134D01*
X705068Y108059D01*
X704980Y107988D01*
X704890Y107920D01*
X704797Y107855D01*
X704702Y107793D01*
X704605Y107735D01*
X704506Y107680D01*
X704405Y107629D01*
X704302Y107581D01*
X704198Y107536D01*
X704092Y107496D01*
X703985Y107459D01*
X703877Y107426D01*
X703767Y107396D01*
X703657Y107371D01*
X703546Y107349D01*
X703434Y107332D01*
X703321Y107318D01*
X703208Y107308D01*
X703095Y107302D01*
X702982Y107300D01*
X702982Y107301D02*
X699736Y107301D01*
X703631Y107301D02*
X706227Y102108D01*
X712052Y102108D02*
X712052Y113792D01*
X710754Y102108D02*
X713350Y102108D01*
X713350Y113792D02*
X710754Y113792D01*
X722875Y108599D02*
X724823Y108599D01*
X724823Y102108D01*
X720928Y102108D01*
X720829Y102110D01*
X720729Y102116D01*
X720630Y102125D01*
X720532Y102138D01*
X720434Y102155D01*
X720336Y102176D01*
X720240Y102201D01*
X720145Y102229D01*
X720051Y102261D01*
X719958Y102296D01*
X719866Y102335D01*
X719776Y102378D01*
X719688Y102423D01*
X719601Y102473D01*
X719517Y102525D01*
X719434Y102581D01*
X719354Y102639D01*
X719276Y102701D01*
X719201Y102766D01*
X719128Y102834D01*
X719058Y102904D01*
X718990Y102977D01*
X718925Y103052D01*
X718863Y103130D01*
X718805Y103210D01*
X718749Y103293D01*
X718697Y103377D01*
X718647Y103464D01*
X718602Y103552D01*
X718559Y103642D01*
X718520Y103734D01*
X718485Y103827D01*
X718453Y103921D01*
X718425Y104016D01*
X718400Y104112D01*
X718379Y104210D01*
X718362Y104308D01*
X718349Y104406D01*
X718340Y104505D01*
X718334Y104605D01*
X718332Y104704D01*
X718332Y111196D01*
X718334Y111295D01*
X718340Y111395D01*
X718349Y111494D01*
X718362Y111592D01*
X718379Y111690D01*
X718400Y111788D01*
X718425Y111884D01*
X718453Y111979D01*
X718485Y112073D01*
X718520Y112166D01*
X718559Y112258D01*
X718602Y112348D01*
X718647Y112436D01*
X718697Y112523D01*
X718749Y112607D01*
X718805Y112690D01*
X718863Y112770D01*
X718925Y112848D01*
X718990Y112923D01*
X719058Y112996D01*
X719128Y113066D01*
X719201Y113134D01*
X719276Y113199D01*
X719354Y113261D01*
X719434Y113319D01*
X719517Y113375D01*
X719601Y113427D01*
X719688Y113477D01*
X719776Y113522D01*
X719866Y113565D01*
X719958Y113604D01*
X720050Y113639D01*
X720145Y113671D01*
X720240Y113699D01*
X720336Y113724D01*
X720434Y113745D01*
X720532Y113762D01*
X720630Y113775D01*
X720729Y113784D01*
X720829Y113790D01*
X720928Y113792D01*
X724823Y113792D01*
X730524Y113792D02*
X730524Y102108D01*
X730524Y108599D02*
X737015Y108599D01*
X737015Y113792D02*
X737015Y102108D01*
X744818Y102108D02*
X744818Y113792D01*
X741573Y113792D02*
X748064Y113792D01*
X523974Y295854D02*
X523974Y304292D01*
X523973Y295854D02*
X523975Y295741D01*
X523981Y295628D01*
X523991Y295515D01*
X524005Y295402D01*
X524022Y295290D01*
X524044Y295179D01*
X524069Y295069D01*
X524099Y294959D01*
X524132Y294851D01*
X524169Y294744D01*
X524209Y294638D01*
X524254Y294534D01*
X524302Y294431D01*
X524353Y294330D01*
X524408Y294231D01*
X524466Y294134D01*
X524528Y294039D01*
X524593Y293946D01*
X524661Y293856D01*
X524732Y293768D01*
X524807Y293682D01*
X524884Y293599D01*
X524964Y293519D01*
X525047Y293442D01*
X525133Y293367D01*
X525221Y293296D01*
X525311Y293228D01*
X525404Y293163D01*
X525499Y293101D01*
X525596Y293043D01*
X525695Y292988D01*
X525796Y292937D01*
X525899Y292889D01*
X526003Y292844D01*
X526109Y292804D01*
X526216Y292767D01*
X526324Y292734D01*
X526434Y292704D01*
X526544Y292679D01*
X526655Y292657D01*
X526767Y292640D01*
X526880Y292626D01*
X526993Y292616D01*
X527106Y292610D01*
X527219Y292608D01*
X527332Y292610D01*
X527445Y292616D01*
X527558Y292626D01*
X527671Y292640D01*
X527783Y292657D01*
X527894Y292679D01*
X528004Y292704D01*
X528114Y292734D01*
X528222Y292767D01*
X528329Y292804D01*
X528435Y292844D01*
X528539Y292889D01*
X528642Y292937D01*
X528743Y292988D01*
X528842Y293043D01*
X528939Y293101D01*
X529034Y293163D01*
X529127Y293228D01*
X529217Y293296D01*
X529305Y293367D01*
X529391Y293442D01*
X529474Y293519D01*
X529554Y293599D01*
X529631Y293682D01*
X529706Y293768D01*
X529777Y293856D01*
X529845Y293946D01*
X529910Y294039D01*
X529972Y294134D01*
X530030Y294231D01*
X530085Y294330D01*
X530136Y294431D01*
X530184Y294534D01*
X530229Y294638D01*
X530269Y294744D01*
X530306Y294851D01*
X530339Y294959D01*
X530369Y295069D01*
X530394Y295179D01*
X530416Y295290D01*
X530433Y295402D01*
X530447Y295515D01*
X530457Y295628D01*
X530463Y295741D01*
X530465Y295854D01*
X530465Y304292D01*
X536335Y304292D02*
X536335Y292608D01*
X536335Y304292D02*
X539581Y304292D01*
X539694Y304290D01*
X539807Y304284D01*
X539920Y304274D01*
X540033Y304260D01*
X540145Y304243D01*
X540256Y304221D01*
X540366Y304196D01*
X540476Y304166D01*
X540584Y304133D01*
X540691Y304096D01*
X540797Y304056D01*
X540901Y304011D01*
X541004Y303963D01*
X541105Y303912D01*
X541204Y303857D01*
X541301Y303799D01*
X541396Y303737D01*
X541489Y303672D01*
X541579Y303604D01*
X541667Y303533D01*
X541753Y303458D01*
X541836Y303381D01*
X541916Y303301D01*
X541993Y303218D01*
X542068Y303132D01*
X542139Y303044D01*
X542207Y302954D01*
X542272Y302861D01*
X542334Y302766D01*
X542392Y302669D01*
X542447Y302570D01*
X542498Y302469D01*
X542546Y302366D01*
X542591Y302262D01*
X542631Y302156D01*
X542668Y302049D01*
X542701Y301941D01*
X542731Y301831D01*
X542756Y301721D01*
X542778Y301610D01*
X542795Y301498D01*
X542809Y301385D01*
X542819Y301272D01*
X542825Y301159D01*
X542827Y301046D01*
X542825Y300933D01*
X542819Y300820D01*
X542809Y300707D01*
X542795Y300594D01*
X542778Y300482D01*
X542756Y300371D01*
X542731Y300261D01*
X542701Y300151D01*
X542668Y300043D01*
X542631Y299936D01*
X542591Y299830D01*
X542546Y299726D01*
X542498Y299623D01*
X542447Y299522D01*
X542392Y299423D01*
X542334Y299326D01*
X542272Y299231D01*
X542207Y299138D01*
X542139Y299048D01*
X542068Y298960D01*
X541993Y298874D01*
X541916Y298791D01*
X541836Y298711D01*
X541753Y298634D01*
X541667Y298559D01*
X541579Y298488D01*
X541489Y298420D01*
X541396Y298355D01*
X541301Y298293D01*
X541204Y298235D01*
X541105Y298180D01*
X541004Y298129D01*
X540901Y298081D01*
X540797Y298036D01*
X540691Y297996D01*
X540584Y297959D01*
X540476Y297926D01*
X540366Y297896D01*
X540256Y297871D01*
X540145Y297849D01*
X540033Y297832D01*
X539920Y297818D01*
X539807Y297808D01*
X539694Y297802D01*
X539581Y297800D01*
X539581Y297801D02*
X536335Y297801D01*
M02*
